<?xml version="1.0" standalone="no"?>
<!DOCTYPE svg PUBLIC "-//W3C//DTD SVG 20010904//EN"
 "http://www.w3.org/TR/2001/REC-SVG-20010904/DTD/svg10.dtd">
<svg version="1.0" xmlns="http://www.w3.org/2000/svg"
 width="1080.000000pt" height="1080.000000pt" viewBox="0 0 1080.000000 1080.000000"
 preserveAspectRatio="xMidYMid meet">

<g transform="translate(0.000000,1080.000000) scale(0.100000,-0.100000)"
fill="#000000" stroke="none">
<path d="M2255 10792 c-6 -4 -44 -18 -85 -31 -41 -13 -90 -30 -108 -37 -18 -8
-39 -14 -47 -14 -8 0 -43 -9 -77 -19 -103 -32 -249 -73 -308 -86 -30 -7 -73
-17 -95 -23 -247 -66 -331 -82 -745 -138 -63 -8 -144 -20 -180 -25 -36 -6
-113 -16 -173 -24 -59 -8 -133 -19 -164 -25 -31 -5 -105 -10 -165 -10 l-108 0
0 -99 0 -99 43 -11 c182 -43 297 -114 340 -211 30 -66 30 -258 0 -315 l-21
-40 -181 4 -181 3 0 -46 0 -46 63 0 c34 -1 91 -8 127 -16 36 -8 83 -19 105
-24 56 -12 75 -40 75 -110 0 -55 -5 -78 -51 -228 -10 -34 -19 -68 -19 -76 0
-13 -22 -43 -57 -79 -24 -25 -114 -67 -144 -67 -13 0 -41 -3 -62 -6 -36 -6
-37 -7 -37 -51 0 -32 7 -54 26 -79 25 -32 26 -39 22 -122 -3 -63 -10 -100 -26
-133 -22 -45 -30 -129 -13 -129 15 0 110 109 130 149 14 26 20 67 23 152 6
139 15 159 100 214 53 34 88 64 125 109 12 14 40 124 63 249 11 62 13 93 9
207 -1 19 4 55 10 80 26 96 33 138 38 226 10 159 -32 241 -188 367 -34 27 -46
43 -42 57 9 32 46 58 103 69 30 6 84 18 120 26 230 51 301 65 370 75 36 5 106
19 155 31 93 22 177 38 305 59 41 6 106 19 144 27 39 8 93 19 120 23 28 4 89
15 135 25 l85 18 18 -23 c19 -24 24 -50 9 -50 -13 0 -74 -98 -89 -141 -18 -52
-15 -89 11 -130 21 -35 77 -89 92 -89 4 0 19 -9 33 -21 25 -19 27 -27 27 -92
0 -52 6 -83 20 -112 23 -46 95 -99 157 -116 38 -10 40 -12 35 -42 -7 -45 -26
-118 -36 -142 -5 -11 -19 -56 -31 -100 -12 -44 -30 -109 -40 -145 -10 -36 -26
-101 -35 -145 -29 -141 -35 -154 -79 -200 -45 -47 -47 -58 -11 -49 13 3 26 1
30 -6 4 -6 0 -54 -9 -108 -29 -183 -52 -512 -36 -512 30 0 0 -45 -78 -120 -63
-61 -109 -95 -163 -122 -150 -74 -144 -72 -284 -73 -71 0 -161 4 -200 8 l-70
9 25 -25 c34 -33 162 -105 270 -152 36 -15 79 -33 95 -40 17 -8 76 -33 133
-56 65 -28 104 -50 108 -62 5 -17 81 -137 93 -147 3 -3 20 -25 36 -50 16 -25
32 -47 35 -50 3 -3 17 -23 32 -46 23 -36 24 -42 10 -50 -14 -9 -14 -20 -3
-100 25 -177 67 -366 121 -549 12 -38 26 -88 31 -110 6 -21 14 -44 18 -50 4
-5 15 -40 24 -77 10 -37 26 -82 37 -101 11 -18 23 -54 26 -79 6 -44 5 -47 -29
-69 -39 -26 -47 -56 -47 -185 l0 -72 58 -51 c31 -28 62 -51 68 -51 6 0 17 -6
23 -13 6 -8 42 -26 81 -42 49 -20 70 -33 70 -45 0 -10 7 -23 15 -30 9 -7 50
-65 92 -129 140 -212 163 -246 208 -296 54 -61 58 -79 13 -70 -84 17 -331 137
-470 229 -140 92 -328 262 -328 296 0 8 9 29 20 45 11 17 20 37 20 45 0 8 9
33 20 55 27 56 27 162 0 215 -23 46 -81 88 -125 90 -87 6 -105 1 -151 -42 -52
-47 -54 -46 -97 37 -51 99 -136 317 -197 500 -13 39 -26 75 -31 80 -4 6 -10
33 -14 60 -4 28 -12 57 -17 65 -12 19 -1 -192 14 -275 11 -65 85 -294 99 -310
5 -5 9 -15 9 -22 0 -7 14 -41 30 -75 37 -76 38 -88 3 -88 -50 0 -125 -34 -164
-74 -28 -28 -41 -52 -49 -92 -12 -57 -7 -173 8 -183 5 -3 11 -14 15 -23 4 -11
17 -18 31 -18 13 0 26 -3 28 -8 5 -12 127 -82 172 -99 55 -20 171 -34 223 -27
49 7 43 15 107 -164 31 -87 96 -222 108 -222 4 0 8 -5 8 -11 0 -11 53 -78 113
-144 25 -27 26 -30 9 -33 -55 -9 -354 151 -503 268 -49 39 -109 102 -109 116
0 4 -6 15 -14 23 -15 17 -97 166 -118 214 -7 15 -18 27 -24 27 -7 0 -15 6 -17
13 -3 6 -3 -8 0 -33 3 -32 19 -65 51 -112 26 -37 53 -79 60 -93 7 -14 17 -25
23 -25 5 0 9 -7 9 -15 0 -8 9 -24 20 -35 11 -11 20 -25 20 -30 0 -6 20 -39 45
-75 26 -36 52 -82 59 -103 25 -70 68 -146 119 -210 27 -35 47 -66 43 -69 -11
-11 -91 -5 -149 12 -58 17 -180 76 -208 101 -8 8 -19 14 -22 14 -4 0 -51 32
-105 72 -97 72 -156 123 -264 231 -54 53 -76 66 -91 51 -9 -9 17 -73 64 -154
63 -109 83 -149 76 -156 -16 -17 -215 181 -308 306 -164 221 -262 409 -369
705 -10 28 -28 74 -39 104 -11 30 -32 95 -46 145 -15 50 -32 107 -40 126 -7
19 -23 71 -34 115 -12 44 -28 100 -36 125 -7 25 -29 113 -48 195 -82 358 -116
650 -117 1000 0 101 -3 145 -10 135 -5 -8 -10 -29 -10 -46 0 -16 -7 -39 -15
-50 -12 -16 -14 -181 -15 -1231 0 -667 4 -1213 8 -1213 5 0 23 -20 41 -45 46
-64 177 -201 214 -224 83 -49 151 -27 78 25 -20 15 -50 45 -65 66 -29 41 -116
210 -116 226 0 6 -3 12 -7 14 -15 6 -56 121 -56 156 0 36 16 97 53 212 24 71
47 179 55 253 9 82 31 78 86 -18 44 -76 79 -158 79 -185 0 -23 65 -192 112
-290 42 -87 130 -238 192 -330 158 -236 377 -415 586 -480 78 -24 100 -25 146
-5 30 12 40 12 72 1 118 -44 153 -49 278 -43 116 6 194 24 194 45 0 4 -21 23
-46 40 -45 32 -54 59 -18 55 170 -19 230 -23 288 -21 l70 3 35 -52 c56 -82
101 -154 101 -164 0 -23 152 -248 210 -310 14 -15 66 -71 115 -125 50 -54 109
-116 131 -138 59 -58 121 -168 158 -281 9 -27 28 -84 42 -125 14 -41 39 -124
55 -185 16 -60 33 -121 38 -135 5 -14 19 -59 31 -100 11 -41 27 -95 35 -120 7
-25 16 -63 20 -85 4 -22 12 -60 20 -85 48 -165 72 -480 55 -716 -6 -87 -16
-166 -21 -175 -4 -9 -20 -52 -34 -95 -35 -108 -79 -196 -142 -281 -55 -75 -65
-88 -123 -157 -19 -23 -50 -62 -68 -86 -111 -150 -161 -212 -215 -271 -72 -76
-108 -116 -160 -181 -21 -26 -43 -53 -50 -60 -19 -20 -128 -156 -177 -223 -53
-71 -153 -178 -194 -208 l-29 -20 6 29 c37 183 42 202 89 374 16 58 33 125 39
150 5 24 14 49 19 54 6 6 10 24 9 40 l0 31 -20 -40 c-10 -22 -23 -47 -28 -55
-15 -26 -51 -107 -51 -116 0 -8 -32 -95 -51 -139 -5 -11 -16 -45 -24 -75 -9
-30 -22 -77 -30 -105 -13 -49 -25 -95 -46 -185 -6 -25 -17 -83 -25 -130 -8
-47 -18 -107 -23 -135 -6 -27 -10 -96 -10 -152 l-1 -103 74 0 74 0 5 33 c13
81 52 197 99 297 17 36 34 74 39 85 22 47 55 99 66 103 7 2 15 -9 19 -25 3
-15 15 -46 25 -69 10 -22 19 -44 19 -48 0 -4 16 -40 36 -79 29 -58 38 -89 45
-162 5 -50 9 -100 9 -112 l0 -23 531 0 531 0 55 37 c30 21 65 45 78 53 13 8
52 35 87 59 58 41 151 103 254 170 22 14 112 79 200 144 87 65 215 155 284
200 125 83 372 257 400 284 8 7 35 28 60 46 79 58 101 56 75 -7 -21 -50 -19
-107 6 -163 44 -98 79 -190 79 -208 0 -16 -27 -78 -95 -220 -75 -157 -74 -152
-33 -242 20 -43 42 -95 49 -116 12 -34 16 -37 51 -37 l37 0 4 153 c3 125 9
180 37 307 l33 154 -23 71 c-13 38 -30 90 -39 114 -24 71 -20 167 10 221 25
45 26 45 85 48 54 3 63 0 112 -35 119 -85 386 -285 411 -307 58 -53 224 -188
366 -299 83 -64 169 -134 192 -154 23 -21 56 -49 74 -63 17 -14 64 -52 103
-85 39 -33 90 -75 112 -93 l42 -32 136 0 c84 0 136 4 136 10 0 6 9 10 19 10
11 0 23 -4 26 -10 9 -14 71 -12 95 2 16 10 24 10 40 0 24 -14 90 -16 90 -2 0
6 11 10 25 10 14 0 25 -4 25 -10 0 -5 20 -10 44 -10 25 0 48 5 51 10 3 6 15
10 26 10 10 0 19 -4 19 -10 0 -14 63 -13 95 2 19 9 28 9 37 0 15 -15 98 -16
98 -2 0 6 9 10 19 10 11 0 23 -4 26 -10 7 -12 315 -14 315 -2 -1 4 -34 43 -76
87 -65 70 -166 210 -245 340 -164 270 -269 472 -269 517 0 9 -8 45 -17 80 -21
78 -24 429 -4 493 6 22 16 63 21 91 8 46 45 141 87 219 8 17 33 64 55 105 22
41 43 80 48 85 4 6 21 35 37 65 54 98 85 153 138 245 29 50 54 95 56 100 2 6
38 62 80 125 42 63 96 153 120 200 23 47 60 108 81 137 21 29 38 56 38 62 0 5
3 11 8 13 18 8 93 132 141 233 126 265 124 260 153 258 15 -1 42 -15 60 -31
18 -16 76 -67 128 -112 52 -45 109 -94 125 -109 84 -74 322 -254 461 -348 83
-55 104 -80 77 -89 -10 -3 -40 -17 -68 -31 -163 -80 -317 -229 -341 -330 -4
-15 -11 -33 -15 -39 -5 -6 -12 -40 -15 -75 -8 -75 -20 -103 -65 -146 -38 -36
-41 -39 -94 -109 -70 -91 -77 -119 -79 -299 -1 -105 4 -179 13 -215 13 -54 12
-57 -13 -100 -44 -76 -98 -183 -108 -215 -5 -16 -13 -101 -18 -187 -11 -187
-9 -199 111 -466 10 -23 19 -49 19 -56 0 -8 7 -27 15 -42 8 -16 15 -36 15 -44
0 -9 7 -26 16 -39 9 -13 23 -55 30 -95 l14 -71 -32 -75 c-18 -41 -43 -90 -56
-107 l-24 -33 151 0 c141 0 151 1 142 17 -5 10 -19 25 -30 33 -14 9 -21 25
-20 45 0 45 22 100 39 100 88 -2 202 -20 207 -32 3 -8 -4 -39 -16 -69 -34 -89
-32 -94 42 -94 l62 0 18 45 c11 25 25 45 32 45 8 0 30 -20 51 -46 l37 -45 121
5 c67 3 166 9 221 13 124 10 128 19 57 113 -26 36 -51 72 -54 80 -3 9 -52 66
-109 129 -57 62 -108 124 -112 137 -7 19 1 36 39 91 140 200 268 359 390 480
107 107 131 123 192 123 58 0 95 29 129 103 27 57 37 67 84 91 30 15 61 31 69
36 19 10 154 73 200 93 59 25 93 36 133 43 20 3 40 10 43 15 2 5 21 16 40 25
20 10 41 28 46 40 6 13 22 31 35 39 l24 16 -3 188 -3 187 -42 83 c-24 45 -43
91 -43 101 0 13 14 24 45 36 45 17 45 17 45 64 l0 47 -47 2 c-30 1 -55 -5 -72
-16 -22 -15 -47 -17 -181 -14 -116 2 -172 -1 -223 -13 -103 -24 -114 -22 -189
37 -87 67 -178 144 -252 214 -33 30 -76 65 -96 78 -20 13 -44 30 -52 38 -14
15 -433 298 -452 306 -5 2 -64 42 -130 89 -139 98 -196 138 -266 187 -27 19
-72 51 -100 70 -27 19 -74 51 -102 72 -47 32 -144 108 -158 123 -3 3 -36 32
-75 64 -110 91 -291 273 -328 329 -57 88 -108 187 -101 198 4 7 20 9 43 4 20
-3 46 -8 58 -10 11 -2 34 -12 50 -22 44 -29 66 -42 91 -53 12 -5 22 -14 22
-19 0 -5 17 -12 37 -16 20 -4 46 -13 57 -21 26 -18 140 -19 158 -1 7 7 21 16
31 20 9 3 17 11 17 17 0 5 13 10 29 10 20 0 59 -22 127 -72 148 -106 183 -130
254 -172 36 -21 101 -62 145 -91 154 -100 192 -124 440 -273 138 -82 284 -167
325 -189 63 -32 204 -115 295 -173 13 -8 77 -46 142 -84 65 -38 136 -82 158
-97 22 -14 99 -62 170 -104 72 -43 140 -85 153 -93 l22 -14 0 93 c0 87 -2 95
-23 105 -22 11 -129 68 -157 83 -8 5 -37 19 -65 32 -27 12 -54 27 -60 31 -32
26 -132 88 -142 88 -7 0 -13 4 -13 9 0 5 -9 13 -20 16 -31 10 -48 44 -55 110
-9 97 -6 437 4 475 23 83 142 423 157 448 22 36 135 132 181 153 39 18 63 15
44 -4 -15 -15 -14 -44 3 -50 12 -5 31 -60 27 -81 -1 -4 5 -18 12 -30 8 -12 18
-36 21 -54 4 -17 13 -32 21 -32 7 0 15 -19 19 -49 4 -28 14 -67 24 -88 17 -38
17 -36 20 170 1 115 1 299 0 410 l-3 201 -53 -65 c-30 -35 -72 -86 -95 -114
-105 -126 -307 -310 -478 -437 -151 -111 -461 -250 -491 -220 -7 7 -8 12 -2
12 6 0 30 18 55 40 24 22 47 40 51 40 6 0 92 99 213 245 22 26 47 60 55 75 8
16 33 56 55 90 22 34 56 87 76 118 19 32 51 82 71 112 19 30 52 91 73 135 21
44 41 87 46 96 13 28 22 89 12 89 -5 0 -14 -12 -20 -28 -13 -29 -18 -38 -75
-125 -21 -32 -38 -60 -38 -64 0 -45 -372 -432 -493 -512 -105 -69 -270 -148
-335 -161 -30 -5 -57 -12 -62 -15 -4 -3 -43 -10 -86 -15 -44 -6 -99 -15 -124
-20 -60 -14 -179 -31 -210 -30 -13 0 -31 6 -38 14 -13 12 -6 20 47 58 79 55
217 172 250 211 14 17 37 43 50 57 63 67 219 310 221 344 0 9 -12 -3 -100
-104 -30 -35 -62 -71 -70 -79 -8 -9 -40 -45 -70 -80 -104 -120 -149 -159 -171
-145 -11 6 -6 84 12 179 5 28 9 111 9 185 l-1 135 38 74 c21 41 45 78 53 82
95 48 229 109 237 109 5 0 24 -15 43 -32 l33 -33 121 1 c92 0 131 5 161 18 22
10 56 24 75 33 72 31 131 76 158 122 24 41 27 56 27 136 -1 79 -4 96 -29 143
l-29 53 34 52 c18 29 52 88 74 132 23 44 55 105 71 135 33 60 140 304 193 439
12 29 21 58 21 64 0 6 11 39 25 74 41 102 106 342 129 478 28 166 36 239 46
405 21 341 27 475 22 484 -8 14 -30 -69 -37 -138 -3 -33 -10 -153 -15 -266 -4
-113 -13 -227 -19 -255 -6 -27 -15 -77 -20 -110 -5 -33 -14 -80 -21 -105 -18
-70 -51 -183 -60 -205 -40 -98 -83 -229 -89 -268 -4 -26 -15 -53 -24 -60 -9
-6 -25 -32 -35 -57 -108 -255 -206 -427 -353 -620 -75 -100 -97 -118 -150
-129 -24 -5 -53 -12 -65 -16 -17 -5 -25 3 -49 52 -34 66 -65 97 -113 114 -40
13 -71 7 -139 -29 -50 -26 -53 -30 -73 -94 -11 -36 -20 -77 -20 -90 0 -13 -4
-39 -10 -57 -8 -29 -7 -38 10 -53 10 -10 22 -35 26 -55 3 -21 12 -61 20 -89 8
-28 12 -58 8 -67 -3 -9 -33 -30 -67 -46 -34 -17 -80 -41 -102 -53 -22 -13 -67
-34 -100 -47 -33 -13 -73 -30 -90 -37 -130 -56 -561 -157 -616 -144 l-24 6 23
8 c12 4 22 12 22 17 0 6 15 16 33 24 90 39 229 151 464 375 23 22 51 40 62 40
39 0 242 123 227 137 -3 3 0 17 6 32 6 14 14 66 18 116 7 69 5 95 -6 117 -15
30 -14 36 35 141 16 35 37 69 45 76 9 8 16 23 16 35 0 31 49 177 65 194 2 2
12 -1 22 -6 17 -9 51 -56 122 -167 14 -22 35 -52 48 -68 l22 -27 10 37 c6 21
11 90 11 154 0 99 3 118 18 132 10 9 70 28 133 42 415 93 459 108 416 144 -15
12 -171 35 -385 56 -235 24 -299 48 -286 109 3 17 10 36 14 41 4 6 10 21 12
35 18 88 92 358 103 375 6 11 15 45 18 75 3 30 15 111 27 180 39 227 27 777
-26 1175 -19 148 -54 368 -60 376 -2 4 -10 35 -18 70 -21 96 -46 192 -56 214
-5 11 -13 40 -19 65 -6 25 -20 79 -31 120 -37 130 -40 144 -40 192 0 26 -4 49
-9 52 -5 4 -12 29 -16 58 -4 28 -13 66 -21 83 -7 18 -11 35 -8 38 3 3 -1 18
-9 34 -18 35 -60 127 -118 261 -11 26 -29 65 -39 87 -11 22 -22 52 -26 68 -3
15 -10 27 -15 27 -14 0 -11 -46 7 -101 10 -30 15 -67 12 -94 -4 -29 -1 -51 8
-62 7 -10 14 -28 14 -41 0 -12 9 -39 20 -59 11 -21 20 -45 20 -55 0 -15 31
-85 66 -150 8 -14 14 -34 14 -45 0 -10 12 -63 26 -118 14 -55 31 -127 39 -160
28 -127 43 -192 58 -245 46 -167 106 -527 132 -790 32 -332 8 -1027 -39 -1078
-10 -12 -14 -29 -10 -52 5 -35 -1 -83 -30 -235 -26 -134 -48 -219 -61 -235 -7
-8 -15 -24 -17 -35 -2 -11 -9 -20 -15 -20 -7 0 -45 32 -86 72 -78 75 -80 79
-107 215 -12 63 -23 71 -84 63 -47 -6 -55 -2 -76 40 -26 53 -309 439 -341 465
-3 3 -23 27 -43 54 -20 27 -52 67 -70 90 -45 56 -50 73 -26 88 30 19 25 25
-27 31 -40 4 -53 12 -91 53 -67 74 -182 230 -247 336 -75 122 -205 377 -205
401 0 8 7 20 15 27 20 16 19 40 -1 40 -39 0 -93 87 -159 255 -15 39 -35 88
-45 110 -41 97 -92 230 -131 340 -16 44 -40 112 -54 150 -15 39 -32 88 -40
110 -7 22 -32 92 -55 155 -23 63 -45 131 -49 150 -5 19 -13 46 -19 60 -14 32
-41 120 -59 190 -41 162 -47 187 -78 340 -9 41 -23 107 -32 145 -9 39 -20 90
-24 115 -17 101 -32 140 -52 140 -19 0 -19 -5 -13 -77 4 -43 12 -98 17 -123
43 -207 62 -941 30 -1220 -43 -384 -46 -404 -102 -670 -20 -94 -27 -121 -69
-275 -31 -113 -162 -515 -177 -545 -7 -14 -13 -32 -13 -40 0 -9 -6 -24 -13
-35 -7 -11 -23 -47 -36 -80 -46 -118 -142 -305 -199 -387 -17 -26 -32 -51 -32
-57 0 -6 -4 -11 -8 -11 -5 0 -23 -23 -41 -50 -43 -67 -62 -57 -30 15 24 55 49
128 49 143 0 9 6 29 14 43 7 14 16 43 20 65 4 21 14 59 21 84 21 68 43 192 60
335 17 141 21 616 6 657 -8 22 -8 22 -24 -7 -8 -17 -20 -68 -26 -115 -30 -233
-70 -406 -148 -645 -61 -185 -133 -287 -353 -504 -134 -132 -292 -256 -442
-346 -150 -90 -197 -116 -333 -183 -23 -11 -55 -23 -73 -27 -28 -6 -31 -4 -25
12 3 10 38 54 76 98 84 96 170 224 234 344 49 92 50 93 69 139 13 32 15 45 6
54 -9 9 -12 8 -12 -6 0 -11 -9 -28 -21 -40 -11 -12 -45 -55 -76 -96 -135 -180
-397 -393 -596 -485 -78 -36 -275 -105 -300 -105 -29 0 -27 17 6 62 49 67 106
170 107 194 1 5 9 27 20 49 11 22 19 46 20 53 0 8 6 28 14 45 8 18 19 50 24
72 6 22 20 67 32 100 20 56 38 160 60 350 6 44 17 114 25 155 19 96 43 427 51
695 3 116 12 251 20 300 10 63 17 223 21 538 5 406 5 447 -10 447 -19 0 -22
-17 -36 -185 -10 -113 -15 -166 -42 -480 -6 -71 -14 -245 -19 -385 -6 -208
-10 -263 -25 -297 -18 -46 -31 -54 -43 -25 -4 9 -21 42 -38 72 -32 57 -49 102
-84 230 -11 41 -28 97 -36 123 -10 28 -14 61 -10 79 5 24 0 41 -19 70 -14 20
-25 43 -25 50 0 7 -6 30 -14 53 -8 22 -24 74 -36 115 -12 41 -26 86 -32 100
-16 39 -47 166 -54 223 -4 29 -11 63 -16 77 -6 14 -13 50 -18 80 -9 68 -37
213 -51 260 -9 33 -33 214 -46 348 -3 34 -2 62 3 63 5 1 29 3 53 5 83 7 68 35
-27 51 -18 3 -37 13 -41 22 -5 9 -14 59 -20 111 -7 52 -19 146 -28 208 l-16
112 -55 0 -54 0 6 -32 c4 -18 11 -80 17 -138 5 -58 14 -130 19 -160 5 -30 12
-75 16 -100 9 -64 17 -61 -271 -110 -38 -7 -79 -16 -90 -20 -18 -7 -17 -9 10
-16 30 -7 128 3 269 30 58 11 83 13 93 5 16 -14 24 -48 52 -209 12 -69 29
-159 37 -200 8 -41 19 -100 24 -130 13 -81 36 -184 60 -275 12 -44 28 -107 35
-140 7 -33 18 -81 25 -106 8 -25 10 -53 7 -62 -5 -14 -12 -12 -39 16 -83 80
-296 247 -317 247 -5 0 -11 4 -13 8 -4 10 -139 88 -167 97 -12 3 -21 10 -21
15 0 5 -15 12 -32 15 -18 4 -38 11 -44 16 -27 22 -170 57 -276 69 -102 11
-137 10 -265 -5 -82 -9 -175 -23 -208 -32 -116 -30 -171 -45 -228 -64 -31 -11
-73 -19 -92 -17 l-35 3 34 71 c36 76 49 84 130 84 42 0 117 48 144 91 11 19
23 50 27 70 7 36 -6 124 -27 185 -10 28 -7 39 32 110 24 43 61 107 82 141 40
62 57 92 99 173 12 25 25 47 29 50 3 3 11 16 18 30 6 14 32 61 56 105 50 88
86 163 86 176 0 5 -45 9 -100 9 l-100 0 -34 -72 c-56 -119 -53 -117 -120 -78
-32 18 -60 40 -63 49 -3 9 -18 35 -32 58 -25 41 -28 43 -76 43 l-50 0 42 -38
c25 -22 45 -51 50 -72 7 -26 21 -43 57 -66 74 -49 95 -73 113 -130 14 -47 15
-60 3 -111 -14 -58 -35 -86 -94 -126 -20 -14 -26 -26 -26 -55 -1 -21 -11 -54
-25 -77 -50 -80 -50 -83 -29 -113 32 -43 64 -128 64 -167 0 -26 -8 -45 -33
-71 -52 -57 -117 -57 -402 -5 -238 44 -279 58 -315 104 -27 35 -37 34 -78 -5
-31 -31 -38 -33 -100 -33 -56 1 -74 5 -108 28 -53 36 -61 55 -68 155 -7 99
-14 115 -65 135 -58 24 -111 82 -111 123 0 44 60 144 99 167 37 21 39 38 9 77
-13 19 -18 33 -12 39 12 11 67 30 134 46 30 7 79 20 108 29 28 9 73 23 100 31
86 26 129 44 181 75 29 16 58 30 65 30 6 0 21 7 32 15 17 13 5 14 -116 15 -75
0 -140 -4 -145 -8z m80 -1005 c40 -27 239 -85 322 -93 32 -4 62 -10 67 -14 11
-11 -2 -80 -14 -80 -6 0 -10 -4 -10 -10 0 -5 -18 -48 -41 -95 -29 -61 -48 -89
-65 -95 -39 -15 -175 -75 -204 -91 -8 -4 -40 -20 -70 -36 -53 -27 -121 -70
-187 -121 -49 -37 -67 -24 -59 41 4 28 11 66 16 82 9 27 18 70 49 220 13 66
61 236 71 256 24 45 86 62 125 36z m1375 -256 c58 -10 115 -23 125 -29 11 -5
45 -21 75 -34 61 -26 113 -57 233 -135 44 -29 81 -53 83 -53 2 0 12 -7 21 -14
10 -8 41 -32 69 -53 163 -120 230 -191 281 -294 45 -91 62 -142 89 -259 15
-67 76 -281 104 -367 6 -17 24 -84 40 -147 16 -64 32 -121 35 -126 4 -6 13
-77 21 -158 18 -186 10 -272 -51 -562 -8 -36 -17 -81 -20 -100 -16 -87 -82
-284 -117 -347 -17 -32 -40 -75 -51 -95 -10 -21 -23 -38 -28 -38 -5 0 -9 -6
-9 -13 0 -7 -22 -34 -50 -61 -27 -27 -50 -52 -50 -57 0 -25 239 9 340 48 36
14 94 39 130 55 96 44 178 78 185 78 11 0 -12 -46 -35 -71 -35 -36 -40 -49
-29 -70 7 -13 16 -15 46 -8 64 13 87 21 112 41 13 10 29 18 36 18 7 0 43 14
80 30 37 17 72 30 79 30 6 0 28 9 49 20 20 11 45 20 56 20 10 0 24 7 31 15 7
8 23 15 36 15 13 0 24 5 24 11 0 5 15 17 33 25 17 8 48 25 68 37 19 12 57 35
85 52 27 16 51 33 52 37 2 4 8 8 13 8 5 0 17 7 27 16 9 9 51 41 92 72 75 57
118 92 152 125 10 9 20 17 23 17 3 0 25 19 49 43 24 23 75 70 112 104 141 127
152 131 133 57 -6 -21 -15 -64 -21 -94 -6 -30 -14 -59 -19 -64 -5 -6 -9 -24
-9 -40 0 -17 -14 -58 -31 -91 -31 -62 -115 -192 -130 -201 -5 -3 -9 -14 -9
-26 0 -17 4 -19 28 -13 29 7 77 38 127 81 33 28 158 150 179 174 36 42 124
176 133 203 3 9 9 17 12 17 4 0 18 21 31 48 13 26 27 49 31 52 10 7 99 194 99
209 0 6 4 11 9 11 5 0 12 18 16 40 4 22 12 40 20 40 7 0 15 18 18 43 3 24 13
56 21 72 9 17 16 38 16 47 0 9 4 19 9 23 6 3 13 26 17 50 3 25 10 47 14 50 4
3 14 29 20 57 7 29 18 59 24 67 6 8 17 37 24 65 7 28 17 69 23 91 5 21 15 45
21 52 5 7 12 30 15 50 2 21 10 54 17 73 8 19 17 59 21 88 5 35 12 52 21 52 10
0 14 14 14 49 0 27 7 68 15 91 8 23 15 55 15 71 0 16 4 29 9 29 5 0 31 -18 57
-41 67 -56 118 -81 149 -73 18 4 25 13 25 30 0 15 -6 24 -16 24 -9 0 -18 9
-21 20 -3 10 -14 22 -24 25 -10 4 -19 10 -19 14 0 4 -24 23 -52 41 -63 39 -78
56 -78 87 0 35 51 237 62 244 5 3 11 21 13 39 3 18 9 38 14 43 15 15 41 -11
41 -38 0 -13 3 -25 8 -27 4 -1 21 -30 37 -63 17 -33 41 -78 54 -100 42 -68 81
-138 103 -185 11 -25 24 -47 27 -50 11 -9 51 -100 51 -116 0 -23 -29 -28 -50
-9 -24 22 -59 16 -78 -13 -15 -23 -15 -23 27 -16 41 7 51 -2 29 -24 -18 -18
-2 -25 31 -14 33 12 43 -2 20 -25 -8 -8 -5 -13 11 -18 42 -13 129 -117 176
-210 25 -49 54 -103 64 -120 11 -16 27 -46 37 -65 20 -39 153 -239 190 -285
104 -130 163 -212 163 -225 0 -4 -69 -10 -152 -13 -177 -7 -353 -29 -459 -57
-41 -10 -94 -24 -119 -31 -25 -6 -59 -17 -76 -25 -18 -7 -49 -16 -70 -20 -20
-4 -49 -13 -63 -20 -14 -8 -32 -14 -39 -14 -12 0 -124 -50 -208 -92 -54 -28
-100 -65 -91 -74 9 -9 50 5 182 61 299 128 623 193 988 197 l188 2 57 -61 c96
-103 323 -388 351 -440 27 -53 17 -53 -119 -3 -50 18 -99 29 -120 28 -50 -4
-46 -29 7 -43 23 -5 45 -13 49 -17 4 -5 14 -8 21 -8 17 0 186 -78 193 -89 3
-5 16 -14 29 -21 50 -26 111 -79 100 -86 -24 -15 -67 -4 -97 23 -31 28 -208
122 -309 164 -38 15 -53 27 -53 40 0 11 -11 37 -25 59 -14 22 -25 44 -25 48 0
8 -21 57 -39 92 -4 8 -18 16 -29 18 -23 3 -112 -44 -112 -59 0 -5 -6 -9 -12
-9 -7 0 -35 -21 -63 -45 -69 -62 -110 -86 -124 -72 -25 25 -402 -54 -428 -89
-11 -14 -18 -15 -55 -5 -88 25 -90 25 -110 0 -29 -37 -62 -101 -65 -129 -6
-46 -24 -65 -110 -115 -47 -27 -99 -62 -116 -77 -16 -16 -33 -28 -37 -28 -5 0
-19 -14 -31 -32 l-23 -31 53 6 c50 6 52 5 49 -16 -5 -33 27 -33 167 3 135 34
139 34 189 -19 17 -17 37 -31 46 -31 9 0 40 26 68 59 28 32 64 63 79 69 51 20
217 46 297 47 l80 0 26 -45 c35 -60 61 -63 143 -13 56 34 68 38 127 37 62 -1
157 -31 254 -81 60 -31 102 -88 129 -175 10 -32 25 -62 34 -67 18 -9 70 2 87
19 5 5 23 10 39 10 23 0 27 -3 22 -19 -4 -14 8 -32 42 -68 63 -65 121 -129
161 -178 41 -51 43 -108 6 -183 -28 -57 -40 -61 -97 -37 -20 8 -53 15 -72 15
-20 0 -43 7 -51 15 -17 16 -79 20 -89 6 -3 -6 15 -13 40 -17 25 -3 47 -10 50
-14 3 -4 29 -14 57 -20 71 -17 108 -39 108 -66 0 -12 -9 -42 -20 -68 l-21 -46
-79 0 c-43 0 -81 -4 -84 -9 -4 -5 -24 -12 -46 -16 -36 -6 -47 -3 -93 29 -62
43 -130 55 -192 34 -34 -11 -44 -22 -72 -76 -45 -89 -59 -164 -40 -211 9 -20
21 -53 27 -73 6 -21 22 -57 36 -80 13 -24 33 -63 45 -86 16 -34 31 -48 65 -63
27 -12 44 -26 44 -37 0 -9 -35 -52 -78 -94 -141 -140 -157 -152 -410 -288 -46
-25 -84 -50 -84 -55 1 -16 75 -36 157 -42 119 -8 402 36 559 88 33 10 70 19
82 19 32 0 32 1 -111 -240 -35 -58 -72 -123 -83 -146 -29 -57 -169 -243 -189
-251 -22 -8 -69 19 -200 119 -301 228 -325 242 -420 243 -57 0 -65 -3 -95 -33
-32 -31 -33 -35 -32 -110 1 -100 26 -240 58 -321 31 -79 65 -136 131 -226 29
-38 55 -77 58 -86 5 -17 -26 -42 -209 -167 -58 -39 -231 -142 -240 -142 -2 0
-32 -14 -66 -30 -86 -42 -459 -203 -533 -230 -33 -12 -72 -29 -87 -36 -14 -8
-31 -14 -38 -14 -7 0 -26 -6 -43 -14 -64 -27 -143 -56 -152 -56 -6 0 -44 -14
-85 -31 -41 -17 -88 -35 -105 -39 -16 -5 -61 -20 -100 -34 -38 -14 -86 -30
-105 -35 -19 -5 -73 -23 -120 -39 -47 -17 -112 -38 -145 -47 -33 -9 -104 -31
-158 -47 -111 -34 -189 -55 -262 -69 -27 -5 -70 -16 -95 -23 -25 -8 -98 -22
-162 -31 -132 -21 -114 -24 -274 51 -39 19 -74 34 -78 34 -4 0 -68 35 -144 77
-75 42 -167 93 -204 112 -93 50 -168 97 -353 217 -88 58 -243 158 -345 222
-502 318 -953 696 -1230 1032 -25 30 -59 70 -75 90 -81 94 -128 157 -218 287
-65 94 -79 123 -67 144 7 11 -5 29 -43 65 -40 38 -66 80 -111 170 -32 65 -65
132 -73 147 -45 88 -30 119 34 70 21 -16 52 -38 68 -48 46 -30 243 -125 258
-125 7 0 22 -7 33 -14 27 -19 211 -88 295 -110 67 -18 110 -19 116 -1 1 6 -22
37 -53 70 -103 110 -317 402 -368 502 -11 22 -13 34 -5 39 8 4 8 9 0 17 -17
17 -13 35 7 42 35 10 140 127 169 186 15 32 36 61 46 64 13 5 16 12 11 23 -4
10 -11 44 -15 77 -21 156 -14 140 -80 159 -85 23 -126 20 -192 -14 -64 -33
-101 -37 -144 -16 -15 8 -36 17 -45 20 -20 6 -53 105 -39 119 5 5 44 13 87 18
43 6 83 14 89 18 5 5 72 12 148 16 84 4 137 11 137 18 0 14 -270 2 -280 -13
-4 -7 -42 -10 -111 -8 l-104 3 -11 50 c-7 28 -22 82 -34 120 -26 86 -46 161
-65 240 -8 33 -17 70 -21 83 -3 12 -2 22 2 22 16 0 111 -104 119 -130 10 -33
26 -47 77 -67 23 -10 66 -33 94 -51 44 -27 53 -39 63 -77 16 -64 38 -75 129
-63 59 8 79 7 105 -5 18 -9 50 -18 72 -22 22 -4 60 -18 85 -32 58 -32 126 -36
266 -17 163 21 228 20 260 -5 37 -29 59 -26 91 10 35 39 65 55 176 90 101 33
119 35 177 14 75 -26 110 -13 110 41 0 18 47 74 61 74 10 0 59 45 59 54 0 3
-12 6 -27 6 -33 0 -57 13 -52 28 2 5 34 41 70 80 37 39 74 86 83 104 9 18 21
40 26 48 16 27 39 83 60 150 l20 65 -35 31 c-30 27 -35 37 -35 75 0 44 0 44
53 64 71 28 79 47 85 214 6 184 -30 406 -85 511 -7 14 -13 31 -13 38 0 8 -16
41 -35 73 -19 33 -35 63 -35 66 0 3 -16 28 -35 54 -19 27 -35 54 -35 59 0 6
-4 10 -9 10 -7 0 -41 54 -41 65 0 8 52 -10 61 -21 6 -8 15 -14 20 -14 4 0 35
-19 69 -42 34 -24 73 -50 86 -58 13 -8 81 -72 150 -142 69 -71 130 -128 135
-128 14 0 11 20 -11 83 -11 31 -20 75 -20 97 0 45 -43 122 -108 192 -20 22
-41 47 -46 55 -4 8 -16 23 -25 32 -9 9 -31 35 -49 56 -32 38 -33 43 -27 93 8
61 -2 154 -19 177 -10 14 -18 14 -56 5 -25 -6 -56 -14 -70 -16 -14 -3 -42 -10
-62 -16 -35 -10 -41 -8 -133 46 -53 31 -99 56 -102 56 -3 0 -27 9 -52 21 -25
12 -64 29 -86 39 -22 10 -49 21 -60 25 -16 5 -17 8 -5 15 23 15 78 12 87 -4
11 -20 87 -34 81 -15 -2 8 -21 15 -41 17 -23 2 -37 8 -37 17 0 14 -21 25 -48
25 -9 0 -30 7 -46 15 -33 17 -72 20 -81 5 -4 -6 7 -15 24 -21 35 -12 32 -29
-4 -29 -15 0 -32 11 -46 33 -13 17 -26 34 -29 37 -3 3 -29 37 -58 77 -54 73
-114 133 -134 133 -12 0 -75 -63 -98 -98 -8 -13 -23 -33 -32 -45 -88 -113 -85
-110 -99 -84 -13 22 -75 23 -126 2 -19 -8 -43 -15 -53 -15 -23 0 -193 -73
-210 -90 -10 -10 -73 -41 -76 -37 -7 7 55 163 94 239 22 42 42 88 46 102 7 28
74 68 136 81 19 4 37 11 40 14 11 15 270 73 450 101 152 23 252 23 380 1z
m-1150 -231 c0 -14 -59 -128 -70 -135 -6 -4 -10 -15 -10 -26 0 -10 -4 -19 -9
-19 -5 0 -13 -12 -19 -27 -5 -16 -23 -50 -41 -77 -17 -28 -31 -60 -31 -73 0
-27 -8 -28 -73 -8 -83 25 -107 3 -107 -99 0 -26 -7 -74 -14 -105 -8 -31 -17
-75 -20 -98 -3 -24 -10 -48 -15 -55 -6 -7 -26 -31 -43 -53 -45 -54 -117 -125
-127 -125 -11 0 -2 38 10 46 5 3 4 15 -2 26 -7 13 -9 48 -6 92 26 335 51 473
93 517 15 16 34 29 42 29 8 0 37 14 65 31 27 17 59 35 71 40 12 5 28 13 36 19
8 5 47 23 85 40 39 17 86 39 105 49 38 21 80 27 80 11z m480 -199 c0 -15 -37
-23 -62 -15 l-23 8 25 7 c37 10 60 10 60 0z m-115 -41 c-3 -5 -22 -10 -41 -10
-21 0 -33 4 -29 10 3 6 22 10 41 10 21 0 33 -4 29 -10z m-112 -37 c-7 -2 -19
-2 -25 0 -7 3 -2 5 12 5 14 0 19 -2 13 -5z m720 -52 c6 -6 30 -11 53 -11 25 0
47 -6 54 -15 7 -8 19 -15 27 -15 20 0 33 -41 19 -62 -15 -25 -30 -28 -68 -17
-18 5 -59 10 -90 10 -42 0 -58 4 -58 14 0 16 -38 25 -108 24 -29 -1 -59 4 -66
10 -7 6 -16 8 -19 4 -4 -3 -7 6 -7 20 0 15 5 27 11 27 6 0 18 7 27 16 14 14
32 16 115 11 55 -3 104 -10 110 -16z m-466 -66 c3 -9 3 -19 -1 -22 -7 -7 -36
16 -36 28 0 15 30 10 37 -6z m333 -136 c23 -7 43 -22 54 -40 26 -44 48 -45
104 -4 40 28 58 35 97 35 70 0 125 -42 145 -111 17 -60 3 -96 -64 -163 -62
-62 -109 -90 -205 -121 -52 -17 -55 -17 -90 1 -60 31 -117 82 -158 141 -36 52
-38 60 -36 124 3 123 53 168 153 138z m-570 -129 c0 -5 -4 -10 -9 -10 -5 0
-34 -24 -63 -52 -112 -110 -215 -254 -254 -354 -15 -38 -33 -83 -40 -101 -8
-17 -14 -38 -14 -46 0 -8 -7 -34 -16 -58 -15 -43 -38 -358 -27 -385 2 -7 18
-18 35 -25 29 -12 78 -76 78 -101 0 -16 -47 -68 -62 -68 -40 0 46 -220 142
-362 60 -87 191 -229 270 -291 98 -77 116 -95 99 -100 -80 -22 -200 -47 -224
-47 -26 0 -138 62 -182 100 -7 5 -16 10 -20 10 -5 0 -32 16 -61 35 -36 24 -59
49 -73 79 -26 55 -64 92 -116 110 -60 21 -82 44 -100 106 -19 66 -26 76 -74
100 -41 21 -93 102 -85 133 5 20 0 40 -39 142 -16 42 -31 114 -39 182 -7 62
-18 119 -26 128 -7 8 -29 24 -49 36 -42 23 -81 75 -81 107 0 29 34 42 106 42
79 0 116 19 149 76 16 27 32 53 36 59 72 92 109 135 137 160 49 44 54 57 37
105 -8 24 -15 62 -15 86 0 42 1 44 30 44 16 0 55 -11 86 -25 31 -14 62 -25 68
-25 6 0 43 21 81 47 96 64 231 142 261 149 13 3 24 10 24 15 0 5 7 9 15 9 8 0
15 -4 15 -10z m322 -175 c9 -20 8 -31 -2 -50 -25 -46 -80 -24 -80 32 0 46 63
60 82 18z m772 -54 c4 -5 -3 -7 -14 -4 -23 6 -26 13 -6 13 8 0 17 -4 20 -9z
m-604 -81 c0 -5 -4 -10 -10 -10 -5 0 -10 5 -10 10 0 6 5 10 10 10 6 0 10 -4
10 -10z m-551 -134 c-2 -2 -22 -6 -44 -10 -29 -5 -36 -4 -25 3 13 10 79 16 69
7z m986 -85 c143 -27 206 -46 283 -83 74 -36 137 -103 153 -161 13 -48 25
-237 21 -318 -3 -51 -7 -61 -47 -105 -42 -45 -45 -52 -45 -104 1 -33 7 -63 16
-75 20 -26 11 -59 -42 -165 -52 -103 -168 -235 -241 -273 -27 -13 -93 -40
-148 -59 -240 -84 -398 -94 -576 -39 -100 31 -267 149 -349 246 -14 16 -32 36
-40 45 -67 69 -143 181 -201 297 l-32 62 27 54 c39 80 32 124 -27 180 -31 29
-32 32 -32 116 0 87 17 167 43 208 37 59 253 138 482 177 142 24 146 25 405
21 190 -3 263 -8 350 -24z m4213 -1017 c-8 -9 -35 -18 -59 -21 -24 -3 -48 -11
-54 -17 -14 -18 -104 -48 -145 -50 -29 -1 -35 3 -35 19 0 17 13 22 85 37 163
33 195 41 204 49 17 15 20 -1 4 -17z m316 -107 c38 -41 20 -63 -57 -72 -33 -3
-63 -3 -66 2 -6 8 -20 10 -118 15 -41 2 -53 6 -57 21 -3 14 7 24 47 43 46 22
63 25 139 21 80 -3 89 -5 112 -30z m331 -77 c3 -5 -1 -10 -10 -10 -9 0 -13 5
-10 10 3 6 8 10 10 10 2 0 7 -4 10 -10z m51 -33 c10 -10 -17 -8 -41 3 -17 8
-16 9 7 7 15 -2 30 -6 34 -10z m-6106 -697 c0 -5 -5 -10 -11 -10 -5 0 -7 5 -4
10 3 6 8 10 11 10 2 0 4 -4 4 -10z m87 -15 c0 -8 -4 -12 -9 -9 -5 3 -6 10 -3
15 9 13 12 11 12 -6z m-47 -10 c0 -2 -9 -9 -20 -15 -16 -9 -20 -8 -20 5 0 8 9
15 20 15 11 0 20 -2 20 -5z m-95 -45 c-3 -5 -13 -10 -21 -10 -8 0 -12 5 -9 10
3 6 13 10 21 10 8 0 12 -4 9 -10z m-655 -24 c0 -3 -4 -8 -10 -11 -5 -3 -10 -1
-10 4 0 6 5 11 10 11 6 0 10 -2 10 -4z m497 -2 c-3 -3 -12 -4 -19 -1 -8 3 -5
6 6 6 11 1 17 -2 13 -5z m-560 -26 c-3 -8 -6 -5 -6 6 -1 11 2 17 5 13 3 -3 4
-12 1 -19z m863 13 c0 -15 -38 -20 -44 -5 -4 10 2 14 19 14 14 0 25 -4 25 -9z
m-117 -187 c-4 -12 -8 -13 -14 -3 -9 15 -2 32 11 24 5 -3 6 -13 3 -21z m-728
-143 c-3 -6 -22 -11 -41 -11 -22 0 -33 4 -29 10 4 6 14 8 23 6 10 -3 24 -1 32
4 17 10 25 6 15 -9z m7260 -121 c3 -5 -3 -10 -15 -10 -12 0 -18 5 -15 10 3 6
10 10 15 10 5 0 12 -4 15 -10z m499 -195 c-4 -8 -8 -15 -10 -15 -2 0 -4 7 -4
15 0 8 4 15 10 15 5 0 7 -7 4 -15z m-674 -75 c0 -5 -2 -10 -4 -10 -3 0 -8 5
-11 10 -3 6 -1 10 4 10 6 0 11 -4 11 -10z m-3 -26 c-3 -3 -12 -4 -19 -1 -8 3
-5 6 6 6 11 1 17 -2 13 -5z m1870 -1230 c-3 -3 -12 -4 -19 -1 -8 3 -5 6 6 6
11 1 17 -2 13 -5z m-1159 -146 c-34 -32 -86 -68 -95 -68 -4 0 -23 -13 -42 -29
l-34 -29 23 -12 c17 -9 64 -11 174 -7 147 5 232 20 303 53 17 7 34 14 39 14 4
0 36 14 72 31 52 26 66 29 73 18 5 -8 9 -73 9 -146 0 -72 6 -189 14 -260 25
-222 26 -254 10 -260 -8 -3 -39 11 -69 31 -30 20 -58 36 -62 36 -3 0 -14 6
-22 14 -9 7 -41 27 -71 43 -30 16 -105 60 -166 96 -61 37 -116 67 -122 67 -7
0 -12 4 -12 9 0 5 -10 13 -21 16 -21 7 -272 152 -342 197 -19 13 -71 46 -116
73 -70 43 -89 59 -78 67 1 1 70 5 152 9 147 6 225 18 295 44 19 7 53 13 74 14
l39 1 -25 -22z m-5972 -480 c56 -37 59 -40 96 -72 15 -14 41 -33 59 -43 28
-17 30 -21 24 -58 -9 -64 -46 -218 -56 -237 -5 -10 -22 -57 -39 -105 -23 -67
-41 -99 -73 -133 -24 -25 -60 -66 -81 -92 -20 -27 -41 -48 -46 -48 -27 0 -45
234 -26 340 3 19 8 75 10 125 2 52 9 91 15 93 14 5 15 122 0 122 -6 0 -3 7 5
15 9 9 20 35 26 58 21 81 17 80 86 35z m460 -313 c4 -8 12 -15 20 -15 8 0 22
-9 31 -20 10 -11 22 -20 27 -20 5 0 29 -15 55 -33 25 -18 72 -46 104 -62 31
-17 69 -40 84 -52 14 -13 32 -23 38 -23 7 0 19 -7 26 -16 7 -9 22 -20 34 -25
11 -5 38 -20 60 -32 86 -50 140 -77 153 -77 7 0 15 -7 18 -15 4 -8 12 -15 20
-15 13 0 41 -11 129 -50 22 -10 58 -23 80 -30 22 -7 58 -21 80 -31 22 -9 56
-21 75 -25 19 -3 45 -14 58 -22 32 -21 248 -20 289 1 15 8 60 18 98 22 39 4
75 11 80 15 6 4 43 13 84 19 40 6 81 15 90 20 9 5 40 12 70 16 30 4 68 13 85
20 17 7 49 14 71 16 22 2 43 7 46 12 3 4 31 15 62 23 32 7 82 20 113 28 31 8
62 20 67 25 6 6 17 11 25 11 8 0 28 6 45 14 18 8 48 19 67 25 19 5 60 19 90
31 30 12 71 26 90 31 19 6 49 16 65 23 17 8 51 23 78 35 l47 21 0 -59 c0 -32
-4 -71 -10 -87 -10 -32 -38 -240 -49 -373 -5 -51 -12 -86 -19 -89 -7 -2 -12
-16 -12 -32 0 -34 -27 -100 -40 -100 -6 0 -10 -4 -10 -10 0 -5 -8 -19 -17 -29
-69 -75 -100 -102 -120 -107 -13 -4 -23 -10 -23 -15 0 -4 -11 -14 -24 -21 -14
-7 -62 -38 -108 -69 -74 -50 -106 -70 -218 -130 -16 -9 -35 -21 -42 -27 -7 -5
-28 -13 -47 -17 -19 -4 -41 -14 -49 -21 -7 -8 -21 -14 -30 -14 -9 0 -26 -7
-36 -15 -11 -8 -30 -15 -42 -15 -12 0 -27 -6 -33 -14 -7 -8 -26 -18 -42 -21
-16 -4 -29 -11 -29 -16 0 -5 -8 -9 -17 -9 -10 0 -52 -17 -94 -39 -42 -21 -88
-41 -103 -45 -14 -3 -26 -11 -26 -16 0 -6 -10 -10 -22 -10 -13 0 -36 -9 -53
-20 -16 -11 -37 -20 -46 -20 -9 0 -19 -7 -22 -15 -5 -12 -301 -165 -321 -165
-4 0 -18 12 -32 27 -14 15 -36 35 -49 43 -13 9 -41 31 -62 50 -46 42 -90 78
-127 105 -68 48 -125 96 -176 146 -55 55 -67 68 -150 169 -25 30 -57 68 -72
85 -14 16 -41 49 -60 71 -308 383 -318 402 -330 559 -16 225 -21 535 -9 535 6
0 14 -7 17 -15z m3610 -44 c-3 -5 1 -14 8 -20 12 -10 12 -17 1 -44 -14 -33
-20 -36 -71 -23 -24 5 -31 12 -29 29 4 34 4 35 21 51 16 17 79 23 70 7z m254
-30 c0 -6 -4 -13 -10 -16 -5 -3 -10 1 -10 9 0 9 5 16 10 16 6 0 10 -4 10 -9z
m-4057 -350 c72 -17 80 -56 36 -181 -19 -57 -20 -61 -3 -95 9 -20 35 -51 57
-68 21 -18 56 -53 76 -78 31 -39 107 -127 176 -204 11 -13 47 -53 79 -89 32
-37 73 -81 91 -99 66 -64 244 -234 356 -339 278 -260 265 -246 253 -265 -6 -9
-19 -21 -30 -27 -77 -44 -277 -196 -439 -335 -131 -113 -175 -147 -202 -155
-13 -4 -23 -11 -23 -15 0 -15 -202 -10 -233 5 -24 13 -34 13 -58 4 -23 -10
-35 -10 -59 0 -18 8 -47 10 -79 5 -43 -6 -52 -4 -68 14 -23 27 -69 28 -83 1
-15 -28 -24 -25 -53 18 -34 52 -87 49 -87 -4 0 -18 -5 -24 -21 -24 -19 0 -21
4 -16 35 7 43 -11 64 -56 66 -73 3 -86 6 -101 18 -11 9 -32 12 -61 9 -43 -5
-92 13 -109 41 -4 6 -23 11 -42 11 -20 0 -37 6 -40 14 -3 8 -22 14 -49 14 -25
1 -55 8 -67 16 -13 7 -34 17 -48 21 -14 4 -53 21 -88 36 -34 16 -67 29 -72 29
-5 0 -14 9 -20 20 -9 17 -5 27 27 61 54 59 55 60 103 99 23 19 54 52 67 72 13
21 30 38 39 38 18 0 94 78 94 96 0 7 24 37 53 66 45 45 93 107 132 167 6 9 23
35 38 59 49 76 125 232 148 305 20 61 23 96 25 225 l1 153 44 46 c24 25 57 53
72 63 15 9 62 49 103 89 79 76 79 75 137 62z m5592 -146 c110 -36 180 -70 342
-167 12 -7 68 -37 125 -66 117 -61 135 -83 85 -108 -48 -25 -166 -112 -219
-162 -27 -25 -65 -71 -85 -102 -44 -68 -59 -79 -121 -87 -40 -4 -63 1 -147 36
-55 23 -104 41 -108 41 -5 0 -23 6 -40 13 -18 8 -66 24 -107 37 -41 13 -93 29
-115 36 -22 7 -52 15 -66 18 -33 7 -72 42 -93 84 -18 35 -13 71 20 132 7 14
29 60 48 103 42 92 101 153 191 197 85 42 153 41 290 -5z m-1815 18 c-8 -3
-21 -10 -27 -16 -9 -7 -13 -5 -13 7 0 11 8 16 28 15 15 0 21 -3 12 -6z m-647
-105 c29 -12 85 -44 124 -70 40 -27 82 -48 93 -48 12 0 64 -25 116 -56 88 -52
95 -58 89 -81 -3 -14 -11 -31 -18 -38 -7 -7 -30 -38 -52 -70 -22 -31 -60 -84
-85 -118 -41 -56 -84 -122 -160 -250 -34 -57 -65 -137 -85 -224 -14 -58 -15
-82 -6 -125 6 -29 15 -91 21 -137 5 -46 14 -89 19 -95 13 -15 32 -108 38 -181
3 -33 9 -65 13 -70 5 -6 13 -23 19 -38 10 -25 8 -27 -32 -39 -23 -7 -48 -12
-56 -11 -8 1 -36 -9 -63 -23 -46 -23 -107 -32 -122 -17 -12 13 -51 10 -65 -4
-10 -11 -8 -13 12 -8 14 4 28 2 32 -5 10 -16 3 -20 -43 -24 -23 -2 -47 -8 -54
-14 -7 -5 -47 -12 -88 -15 -41 -3 -76 -6 -78 -6 -2 -1 -1 -5 2 -10 9 -13 -85
-23 -100 -10 -9 8 -14 8 -14 1 0 -13 -53 -25 -99 -24 -19 1 -40 -3 -47 -9 -6
-5 -72 -12 -146 -15 -155 -7 -173 -1 -263 81 -45 42 -131 111 -308 248 -34 26
-66 51 -72 55 -5 4 -53 39 -105 77 -52 39 -104 78 -115 87 -11 9 -36 27 -55
40 -19 13 -36 30 -38 38 -3 17 67 63 113 74 30 8 240 109 261 127 6 5 33 21
59 35 102 54 158 86 229 132 28 17 58 32 66 32 9 0 20 4 26 9 5 5 38 21 74 36
36 15 110 49 165 75 55 26 134 64 175 83 41 20 87 39 103 43 15 3 30 10 33 15
3 5 11 9 18 9 23 0 120 49 204 103 48 31 190 170 210 204 21 39 14 81 -23 136
-37 54 -43 85 -23 105 17 17 43 15 101 -10z m3602 -304 c39 -77 75 -165 75
-185 0 -9 9 -45 20 -79 11 -34 20 -82 20 -106 0 -42 -1 -44 -67 -86 -82 -53
-128 -73 -144 -62 -19 12 -147 33 -202 33 -89 1 -108 -14 -166 -133 -28 -59
-51 -112 -51 -119 0 -24 -36 -66 -95 -111 -33 -25 -65 -50 -72 -56 -26 -22
-116 -3 -211 44 -63 31 -212 145 -224 171 -14 31 14 113 63 184 36 51 43 56
118 82 93 31 95 34 141 114 59 104 167 197 321 278 102 52 176 77 237 78 32 0
82 6 112 13 30 6 64 9 75 6 11 -4 33 -33 50 -66z m-1707 -154 c29 -11 60 -24
70 -29 66 -34 167 -71 362 -132 92 -29 160 -60 160 -74 0 -6 -18 -39 -41 -74
-49 -75 -69 -137 -69 -212 0 -62 -7 -68 -75 -69 -16 0 -55 -14 -85 -30 -110
-58 -99 -58 -270 -5 -30 10 -98 26 -150 37 -52 10 -105 21 -118 24 -34 7 -42
42 -42 177 1 225 41 329 150 387 44 24 44 24 108 0z m609 -662 c58 -32 87 -55
155 -120 32 -32 63 -58 69 -58 30 0 -19 -102 -88 -182 -109 -124 -115 -129
-183 -138 -159 -21 -222 -73 -240 -197 -5 -32 -13 -88 -19 -125 -7 -53 -20
-86 -60 -151 -28 -47 -58 -91 -67 -98 -21 -18 -255 -18 -296 -1 -37 15 -41 47
-29 222 11 168 20 193 109 328 75 113 113 155 181 201 35 23 62 51 74 76 56
111 164 209 277 250 52 19 71 17 117 -7z m-687 -21 c36 -10 95 -27 132 -38
106 -33 102 -57 -26 -184 -86 -85 -137 -159 -189 -279 -22 -50 -46 -95 -54
-99 -8 -5 -13 -27 -13 -57 0 -90 -37 -134 -61 -73 -7 16 -15 37 -20 48 -5 11
-13 34 -18 50 -6 17 -21 62 -36 100 -14 39 -30 94 -35 123 -21 121 35 331 107
400 32 32 38 33 91 30 31 -3 86 -12 122 -21z m-5450 -658 c0 -20 -25 -25 -48
-10 -11 7 -10 11 3 24 19 20 45 12 45 -14z m3665 -14 c0 -10 -6 -20 -12 -22
-8 -3 -13 5 -13 22 0 17 5 25 13 23 6 -3 12 -13 12 -23z m142 9 c1 -5 -2 -16
-7 -24 -12 -20 -35 2 -26 25 6 17 27 16 33 -1z m-277 -25 c0 -5 -7 -9 -15 -9
-9 0 -12 6 -9 15 6 15 24 11 24 -6z m0 -124 c0 -16 -6 -25 -15 -25 -9 0 -15 9
-15 25 0 16 6 25 15 25 9 0 15 -9 15 -25z m137 -9 c-4 -9 -11 -16 -17 -16 -11
0 -14 33 -3 44 11 10 26 -11 20 -28z m273 3 c0 -20 -15 -26 -24 -10 -8 13 4
42 15 35 5 -3 9 -14 9 -25z m-555 -8 c-9 -16 -25 -3 -18 15 4 10 9 12 15 6 6
-6 7 -15 3 -21z m421 18 c8 -14 -11 -33 -25 -25 -11 7 -4 36 9 36 5 0 12 -5
16 -11z m-418 -141 c-5 -32 -28 -35 -28 -4 0 17 5 26 16 26 10 0 14 -7 12 -22z
m137 -1 c0 -26 -20 -25 -23 2 -3 16 1 22 10 19 7 -3 13 -12 13 -21z m141 8 c8
-19 -4 -35 -20 -29 -11 4 -14 19 -7 42 3 8 23 -1 27 -13z m139 -10 c0 -10 -6
-20 -12 -22 -8 -3 -13 5 -13 22 0 17 5 25 13 23 6 -3 12 -13 12 -23z m135 0
c0 -14 -4 -25 -9 -25 -10 0 -21 36 -13 44 12 13 22 5 22 -19z m-547 -124 c6
-26 -7 -45 -27 -38 -16 6 -22 38 -9 50 12 13 31 7 36 -12z m275 -14 c2 -19 -1
-27 -13 -27 -19 0 -30 24 -21 46 9 23 31 11 34 -19z m-138 -2 c0 -25 -23 -35
-35 -15 -10 16 2 40 20 40 9 0 15 -9 15 -25z m280 0 c0 -25 -23 -35 -35 -15
-10 16 2 40 20 40 9 0 15 -9 15 -25z m134 9 c10 -26 7 -34 -13 -34 -21 0 -31
17 -23 38 6 17 29 15 36 -4z m144 -7 c4 -20 -25 -34 -40 -19 -15 15 -1 44 19
40 10 -2 19 -11 21 -21z m-698 -122 c0 -8 -4 -15 -10 -15 -5 0 -10 7 -10 15 0
8 5 15 10 15 6 0 10 -7 10 -15z m140 -15 c0 -23 -5 -30 -19 -30 -23 0 -32 19
-19 43 15 28 38 21 38 -13z m140 6 c0 -14 -4 -27 -9 -30 -15 -10 -41 5 -41 23
0 23 9 31 32 31 12 0 18 -7 18 -24z m140 -6 c0 -23 -5 -30 -19 -30 -10 0 -21
7 -25 15 -8 23 4 45 25 45 14 0 19 -7 19 -30z m135 0 c0 -18 -5 -25 -19 -25
-19 0 -31 29 -19 47 11 18 38 2 38 -22z m140 0 c0 -38 -39 -35 -43 3 -3 25 0
28 20 25 17 -2 23 -9 23 -28z m139 15 c7 -20 -3 -45 -20 -45 -16 0 -33 30 -27
48 6 17 40 15 47 -3z"/>
<path d="M3776 9032 c-11 -11 7 -22 35 -22 17 0 28 4 25 9 -7 10 -53 20 -60
13z"/>
<path d="M3862 8991 c-10 -6 -8 -10 9 -14 26 -7 34 -3 24 12 -7 13 -15 14 -33
2z"/>
<path d="M3955 8935 c28 -14 57 -23 65 -21 9 2 2 8 -17 16 -18 6 -33 16 -33
21 0 5 -15 9 -32 9 -33 -1 -32 -1 17 -25z"/>
<path d="M7535 8770 c-10 -11 -15 -23 -12 -27 10 -9 58 18 54 31 -6 18 -23 17
-42 -4z"/>
<path d="M4278 8696 c32 -41 124 -116 135 -109 6 4 3 11 -6 18 -10 7 -17 16
-17 21 0 16 -92 94 -111 94 -20 0 -20 0 -1 -24z"/>
<path d="M7326 6937 c-22 -12 -46 -28 -54 -34 -7 -7 -17 -13 -22 -13 -5 0 -14
-9 -20 -20 -9 -17 -8 -19 7 -14 29 9 87 38 103 51 8 6 26 13 40 15 14 2 26 11
28 21 5 24 -33 22 -82 -6z"/>
<path d="M5636 6278 c-25 -35 -21 -68 8 -68 26 0 42 36 31 71 -8 25 -20 24
-39 -3z"/>
<path d="M2817 6278 c15 -7 37 -7 70 0 l48 10 -70 0 c-56 1 -66 -1 -48 -10z"/>
<path d="M2958 6073 c17 -2 47 -2 65 0 17 2 3 4 -33 4 -36 0 -50 -2 -32 -4z"/>
<path d="M2718 5763 c18 -2 45 -2 60 0 15 2 0 4 -33 4 -33 0 -45 -2 -27 -4z"/>
<path d="M5195 5555 c-22 -8 -70 -14 -107 -14 -37 -1 -87 -7 -110 -15 -24 -8
-69 -17 -101 -21 -32 -4 -74 -13 -92 -21 -19 -8 -43 -14 -54 -14 -11 0 -45
-11 -74 -25 -45 -21 -56 -32 -66 -63 -18 -56 -24 -208 -12 -292 26 -180 41
-268 50 -305 6 -22 13 -57 16 -77 3 -21 10 -38 15 -38 13 0 13 185 -1 233 -12
46 -17 271 -6 310 4 15 11 25 16 23 5 -3 11 11 15 32 6 43 66 107 109 117 14
4 28 13 31 20 2 7 24 16 48 20 24 4 52 14 63 21 11 8 34 14 53 14 18 0 43 5
55 12 37 20 224 41 372 41 205 -1 318 -17 490 -73 33 -11 70 -20 81 -20 12 0
27 -7 34 -15 7 -8 21 -15 32 -15 11 0 47 -16 79 -35 33 -19 67 -35 75 -35 7 0
14 -7 14 -15 0 -8 6 -15 13 -15 13 0 39 -18 84 -57 14 -13 30 -23 34 -23 12 0
49 -38 49 -50 0 -5 4 -10 9 -10 14 0 41 -103 43 -162 1 -58 -22 -188 -34 -188
-8 0 -14 -35 -21 -111 -4 -38 -1 -46 11 -45 9 2 20 18 25 37 4 19 14 48 22 64
28 59 85 289 92 373 5 52 3 60 -24 88 -37 40 -105 86 -215 143 -107 57 -152
77 -198 90 -19 5 -62 20 -95 32 -59 21 -108 32 -270 64 -44 8 -93 20 -109 25
-43 15 -392 11 -441 -5z"/>
<path d="M4680 4631 c0 -22 5 -43 10 -46 6 -4 10 10 10 34 0 22 -4 43 -10 46
-6 4 -10 -10 -10 -34z"/>
<path d="M6388 4624 c-5 -4 -8 -16 -8 -28 0 -14 3 -17 11 -9 6 6 9 19 7 28 -1
9 -6 13 -10 9z"/>
<path d="M4722 4500 c0 -19 2 -27 5 -17 2 9 2 25 0 35 -3 9 -5 1 -5 -18z"/>
<path d="M6346 4512 c-4 -13 -5 -26 -2 -29 10 -11 18 4 14 29 l-4 23 -8 -23z"/>
<path d="M6310 4424 c0 -14 4 -23 10 -19 6 3 10 15 10 26 0 10 -4 19 -10 19
-5 0 -10 -12 -10 -26z"/>
<path d="M4757 4403 c-3 -5 -1 -17 4 -28 6 -17 7 -16 6 8 -1 28 -3 32 -10 20z"/>
<path d="M6275 4357 c-4 -10 -5 -21 -1 -24 10 -10 18 4 13 24 -4 17 -4 17 -12
0z"/>
<path d="M4792 4295 c0 -16 2 -22 5 -12 2 9 2 23 0 30 -3 6 -5 -1 -5 -18z"/>
<path d="M6240 4279 c0 -11 5 -17 10 -14 6 3 10 13 10 21 0 8 -4 14 -10 14 -5
0 -10 -9 -10 -21z"/>
<path d="M4820 4220 c0 -11 4 -20 9 -20 5 0 7 9 4 20 -3 11 -7 20 -9 20 -2 0
-4 -9 -4 -20z"/>
<path d="M6206 4222 c-4 -13 -5 -26 -2 -29 10 -11 18 4 14 29 l-4 23 -8 -23z"/>
<path d="M6177 4164 c-4 -4 -7 -14 -7 -23 0 -11 3 -12 11 -4 6 6 10 16 7 23
-2 6 -7 8 -11 4z"/>
<path d="M4850 4146 c0 -15 18 -31 26 -23 7 7 -7 37 -17 37 -5 0 -9 -6 -9 -14z"/>
<path d="M6140 4099 c0 -5 5 -7 10 -4 6 3 10 8 10 11 0 2 -4 4 -10 4 -5 0 -10
-5 -10 -11z"/>
<path d="M4890 4093 c0 -4 5 -15 10 -23 8 -13 10 -13 10 2 0 9 -4 20 -10 23
-5 3 -10 3 -10 -2z"/>
<path d="M4931 4014 c0 -11 3 -14 6 -6 3 7 2 16 -1 19 -3 4 -6 -2 -5 -13z"/>
<path d="M5338 3573 c7 -3 16 -2 19 1 4 3 -2 6 -13 5 -11 0 -14 -3 -6 -6z"/>
<path d="M5380 3550 c0 -5 15 -10 33 -10 24 0 28 3 17 10 -20 13 -50 13 -50 0z"/>
<path d="M5608 3543 c7 -3 16 -2 19 1 4 3 -2 6 -13 5 -11 0 -14 -3 -6 -6z"/>
<path d="M3715 7970 c3 -5 8 -10 11 -10 2 0 4 5 4 10 0 6 -5 10 -11 10 -5 0
-7 -4 -4 -10z"/>
<path d="M3448 7393 c7 -3 16 -2 19 1 4 3 -2 6 -13 5 -11 0 -14 -3 -6 -6z"/>
<path d="M8110 10791 c0 -18 17 -20 36 -6 18 14 18 14 -8 15 -16 0 -28 -4 -28
-9z"/>
<path d="M9010 10790 c0 -6 44 -52 97 -103 53 -51 129 -123 168 -162 61 -60
295 -284 439 -420 69 -65 214 -196 249 -224 30 -24 117 -105 228 -211 158
-152 221 -211 274 -255 83 -69 96 -80 220 -188 l110 -95 3 99 c2 82 0 103 -15
122 -15 20 -291 284 -354 339 -14 13 -63 57 -110 99 -46 42 -100 89 -119 105
-19 16 -37 31 -40 35 -5 6 -75 67 -161 140 -109 94 -295 268 -654 613 l-120
116 -107 0 c-68 0 -108 -4 -108 -10z"/>
<path d="M9872 10423 c207 -208 419 -421 471 -473 51 -52 173 -171 271 -265
98 -93 179 -172 182 -174 2 -2 4 287 4 642 l0 647 -652 0 -653 0 377 -377z"/>
<path d="M8160 10761 c0 -8 3 -12 6 -8 7 6 37 -19 32 -27 -5 -7 121 -86 137
-86 8 0 19 -8 24 -18 13 -25 94 -30 84 -6 -4 11 -14 14 -33 11 -20 -5 -34 1
-58 23 -18 16 -32 32 -32 36 0 4 -18 24 -40 45 -29 27 -50 38 -80 41 -30 3
-40 0 -40 -11z"/>
<path d="M2904 10593 c-4 -10 -6 -21 -6 -25 1 -5 -2 -8 -8 -8 -5 0 -10 -17
-10 -37 0 -27 -3 -34 -10 -23 -8 12 -11 12 -28 -3 -10 -9 -24 -17 -30 -17 -7
0 -12 -4 -12 -10 0 -5 -4 -10 -10 -10 -5 0 -10 7 -10 15 0 15 -26 20 -54 9 -9
-3 -16 -13 -16 -20 0 -11 11 -14 40 -12 26 1 46 -4 56 -13 15 -15 14 -23 -7
-109 -6 -23 -37 -31 -91 -24 -42 6 -54 13 -81 47 -18 22 -31 44 -30 48 5 18
-17 9 -27 -11 -6 -11 -17 -20 -25 -20 -19 0 -45 -39 -45 -70 0 -14 -7 -34 -15
-44 -8 -11 -15 -32 -15 -47 0 -14 -7 -43 -16 -64 -9 -23 -14 -60 -13 -96 1
-35 -2 -64 -9 -71 -15 -15 3 -38 29 -38 11 0 19 -5 19 -12 0 -6 7 -4 18 5 10
10 23 17 29 17 6 0 11 23 12 55 0 62 15 91 49 100 34 8 87 -4 112 -27 22 -20
27 -19 68 20 7 6 19 12 26 12 8 0 16 16 19 36 7 43 23 64 47 64 10 0 20 6 23
13 3 9 10 7 25 -6 20 -18 21 -18 31 2 15 27 -11 42 -51 30 -25 -7 -29 -5 -26
9 3 9 9 16 15 15 8 -2 9 7 2 30 -12 43 2 89 32 104 15 8 47 11 86 8 69 -5 93
0 93 21 0 10 -13 14 -42 14 -99 0 -130 30 -109 105 12 45 -17 77 -35 38z m14
-144 c9 -1 4 -5 -13 -8 -34 -8 -48 -4 -39 10 3 6 13 8 21 5 8 -3 22 -7 31 -7z
m-343 -128 c3 -5 1 -12 -5 -16 -5 -3 -10 1 -10 9 0 18 6 21 15 7z m169 -63
c19 -13 35 -29 36 -36 0 -7 -4 -10 -10 -7 -5 3 -10 0 -10 -9 0 -8 -3 -23 -7
-33 -5 -15 -4 -16 8 -7 11 9 17 8 29 -4 13 -14 12 -15 -4 -9 -9 4 -27 2 -39
-5 -12 -7 -42 -14 -67 -18 -35 -4 -49 -2 -62 12 -11 11 -13 18 -5 21 7 2 2 9
-11 16 -22 12 -31 41 -12 41 6 0 10 6 10 14 0 21 41 45 77 45 17 1 47 -9 67
-21z"/>
<path d="M5255 10565 c-27 -13 -55 -24 -62 -24 -7 -1 -17 -10 -24 -22 -8 -16
-17 -20 -37 -16 -32 6 -52 -1 -52 -19 0 -20 79 -19 86 1 4 9 19 15 35 15 53 0
139 53 139 86 0 11 -40 1 -85 -21z"/>
<path d="M8412 10571 c-10 -6 -10 -11 3 -21 14 -12 18 -12 25 0 7 11 11 11 24
1 13 -11 16 -11 16 2 0 23 -42 35 -68 18z"/>
<path d="M8520 10522 c0 -26 6 -41 20 -50 17 -10 20 -10 20 4 0 8 -7 22 -15
31 -9 9 -13 23 -10 34 4 11 2 19 -4 19 -6 0 -11 -17 -11 -38z"/>
<path d="M4967 10463 c-19 -18 -5 -33 31 -33 51 0 72 14 44 29 -23 12 -65 15
-75 4z"/>
<path d="M8597 10439 c7 -7 15 -10 18 -7 3 3 -2 9 -12 12 -14 6 -15 5 -6 -5z"/>
<path d="M4828 10434 c-16 -15 16 -34 58 -34 40 0 57 11 36 24 -17 10 -87 18
-94 10z"/>
<path d="M8640 10420 c0 -11 5 -20 11 -20 5 0 7 -5 4 -10 -3 -6 1 -13 9 -16 9
-3 16 -12 16 -20 0 -15 1 -15 38 -19 16 -2 22 2 20 14 -2 11 -12 15 -28 13
-19 -2 -22 -1 -10 7 12 8 10 15 -15 41 -34 35 -45 38 -45 10z"/>
<path d="M4676 10412 c-10 -17 23 -35 74 -40 28 -2 50 -2 50 1 0 20 -114 55
-124 39z"/>
<path d="M4515 10371 c-14 -23 88 -51 129 -35 22 9 20 24 -3 24 -11 0 -23 5
-26 10 -8 13 -92 13 -100 1z"/>
<path d="M8738 10313 c7 -3 16 -2 19 1 4 3 -2 6 -13 5 -11 0 -14 -3 -6 -6z"/>
<path d="M8840 10217 c0 -7 14 -23 30 -37 17 -14 30 -30 30 -37 0 -6 9 -15 20
-18 12 -4 38 -23 58 -43 64 -63 69 -66 64 -32 -2 17 -8 30 -12 30 -14 0 -70
54 -70 67 0 7 -4 13 -9 13 -4 0 -20 11 -35 25 -26 24 -59 45 -70 45 -3 0 -6
-6 -6 -13z"/>
<path d="M2164 10143 c-3 -10 -11 -31 -19 -48 -12 -27 -28 -86 -25 -93 0 -1
-6 -10 -15 -18 -29 -29 -12 -51 27 -34 26 12 57 70 62 114 2 15 8 31 14 35 6
3 14 19 17 34 7 25 5 27 -24 27 -21 0 -33 -6 -37 -17z"/>
<path d="M9674 9308 c-4 -6 -3 -8 4 -4 6 3 15 -2 21 -11 5 -10 13 -15 17 -11
7 8 -13 38 -27 38 -4 0 -11 -5 -15 -12z"/>
<path d="M1840 8919 c0 -5 5 -7 10 -4 6 3 10 8 10 11 0 2 -4 4 -10 4 -5 0 -10
-5 -10 -11z"/>
<path d="M8070 8496 c0 -8 17 -21 38 -30 20 -10 48 -23 62 -31 14 -8 34 -15
45 -15 11 0 31 -7 45 -15 26 -15 131 -21 115 -7 -6 5 -44 19 -85 32 -41 12
-82 29 -91 36 -8 8 -24 14 -35 14 -10 0 -28 7 -38 15 -25 19 -56 19 -56 1z"/>
<path d="M8650 7641 c0 -11 69 -20 75 -10 3 3 -9 9 -26 13 -42 8 -49 8 -49 -3z"/>
<path d="M8780 7600 c20 -13 53 -13 45 0 -3 6 -18 10 -33 10 -21 0 -24 -2 -12
-10z"/>
<path d="M8865 7570 c-3 -5 3 -10 15 -10 12 0 18 5 15 10 -3 6 -10 10 -15 10
-5 0 -12 -4 -15 -10z"/>
<path d="M242 4400 c2 -108 12 -258 22 -335 l19 -141 -73 -144 c-83 -167 -130
-285 -200 -506 -6 -18 -10 -229 -10 -525 0 -569 -8 -510 106 -729 33 -64 131
-211 170 -255 26 -30 26 -30 4 -33 -12 -2 -30 4 -39 12 -10 9 -22 16 -27 16
-5 0 -33 16 -63 35 -29 19 -56 35 -59 35 -4 1 -23 14 -42 30 -19 17 -38 30
-42 30 -4 0 -8 -24 -8 -52 1 -53 1 -53 58 -94 31 -22 86 -54 122 -71 173 -82
263 -123 272 -123 5 0 22 -6 36 -14 33 -18 113 -44 166 -56 82 -17 89 18 14
72 -75 54 -287 252 -363 339 -39 44 -120 165 -135 204 -7 17 -16 39 -21 50
-14 31 -37 121 -60 235 -19 93 -20 127 -15 295 5 188 17 271 50 347 19 45 21
45 164 -39 203 -118 221 -133 367 -297 33 -38 74 -82 91 -100 66 -67 166 -253
189 -353 55 -237 59 -264 59 -458 0 -144 -4 -204 -16 -250 -9 -33 -23 -94 -32
-135 -8 -41 -23 -111 -32 -155 -15 -70 -44 -140 -78 -184 -39 -49 -144 -154
-215 -215 -135 -114 -321 -256 -336 -256 -3 0 -28 -16 -55 -35 -28 -19 -72
-51 -100 -70 -27 -19 -52 -35 -55 -35 -3 0 -13 -7 -22 -15 -10 -8 -26 -20 -36
-27 -15 -12 -17 -27 -15 -120 l3 -106 275 215 c151 118 287 219 301 224 46 18
319 318 319 351 0 6 7 19 15 28 8 9 64 114 123 232 60 119 123 235 140 259 18
24 32 54 32 67 0 13 13 56 29 95 59 149 71 183 71 194 0 7 6 27 14 45 67 155
147 634 116 703 -5 11 -9 18 -10 15 -1 -3 -7 -39 -14 -80 -24 -131 -44 -225
-67 -301 -12 -41 -28 -99 -36 -129 -8 -30 -18 -64 -23 -75 -4 -11 -16 -40 -25
-65 -28 -75 -69 -160 -77 -160 -9 0 -34 47 -55 104 -8 22 -31 84 -50 136 -20
52 -42 113 -49 135 -8 22 -18 49 -23 60 -4 11 -18 54 -31 95 -13 41 -29 89
-35 105 -7 17 -25 62 -40 100 -30 77 -63 150 -134 300 -27 55 -57 120 -68 145
-11 25 -28 61 -37 82 -9 20 -16 41 -16 47 0 6 -9 28 -20 48 -11 21 -20 43 -20
50 0 8 -4 21 -10 31 -51 89 -187 491 -225 667 -7 33 -17 80 -23 105 -29 121
-52 242 -52 275 0 20 -5 45 -11 56 -5 11 -16 72 -23 135 -8 63 -17 118 -21
122 -3 4 -5 -81 -3 -188z"/>
<path d="M7934 2236 c-3 -9 -11 -16 -18 -16 -12 -1 -148 -174 -233 -299 -57
-83 -120 -232 -148 -354 -35 -149 -23 -385 27 -532 5 -16 13 -46 17 -65 4 -19
13 -44 19 -55 7 -11 17 -31 22 -45 6 -14 19 -38 30 -55 11 -16 27 -43 36 -60
9 -16 20 -32 23 -35 3 -3 13 -18 21 -34 22 -43 93 -118 142 -151 24 -16 48
-34 53 -40 53 -57 227 -165 233 -145 2 6 -14 32 -35 58 -92 111 -130 180 -179
332 -56 171 -73 290 -100 700 -6 89 19 431 33 453 3 5 11 46 19 91 7 44 18
101 24 126 25 107 30 133 26 138 -3 3 -8 -3 -12 -12z m-210 -628 c-17 -18 -17
-20 -1 -47 21 -35 21 -60 2 -85 -19 -25 -19 -50 0 -66 8 -7 15 -23 15 -35 0
-12 -7 -28 -15 -35 -20 -17 -19 -32 5 -60 22 -26 25 -46 10 -86 -8 -20 -7 -32
5 -50 27 -41 19 -70 -25 -91 -43 -22 -60 -15 -60 22 0 12 -5 26 -11 32 -7 7
-13 75 -15 177 -3 133 -1 172 10 195 8 15 20 65 25 110 11 84 23 118 50 138
14 10 16 5 19 -44 2 -42 -1 -60 -14 -75z m36 -653 c0 -27 -17 -35 -47 -24 -33
12 -28 49 7 61 21 7 40 -10 40 -37z m-2 -128 c2 -19 -1 -27 -12 -27 -17 0 -31
34 -21 50 11 18 30 5 33 -23z m97 -127 c3 -5 1 -10 -4 -10 -6 0 -11 5 -11 10
0 6 2 10 4 10 3 0 8 -4 11 -10z"/>
</g>
</svg>
